<?xml version="1.0" encoding="utf-8"?>
<!-- Generator: Adobe Illustrator 22.0.0, SVG Export Plug-In . SVG Version: 6.00 Build 0)  -->
<svg version="1.1" id="图层_1" xmlns="http://www.w3.org/2000/svg" xmlns:xlink="http://www.w3.org/1999/xlink" x="0px" y="0px"
	 viewBox="0 0 1593.5 374.4" style="enable-background:new 0 0 1593.5 374.4;" xml:space="preserve">
<style type="text/css">
	.st0{display:none;}
	.st1{display:inline;}
	.st2{stroke:#000000;stroke-width:6;stroke-linecap:round;stroke-miterlimit:10;}
	.st3{fill:none;stroke:#000000;stroke-width:3;stroke-linecap:round;stroke-miterlimit:10;}
	.st4{fill:none;stroke:#000000;stroke-width:6;stroke-linecap:round;stroke-miterlimit:10;}
	.st5{fill:#EF7D0A;}
	.st6{font-family:'AdobeSongStd-Light-GBpc-EUC-H';}
	.st7{font-size:330.14px;}
	.st8{letter-spacing:5;}
</style>
<g id="图层_1_1_">
	<g id="图层_2_1_" class="st0">
		<g class="st1">
			<path class="st2" d="M282.1,190.6h-236c-1,0.6-2.6,1.4-4.5,2.6c-2.4,1.5-4.8,3.2-7,5c-6.6,5.2-32.1,8.4-32.1,8.6
				c0,0.5,132.1,0.4,279.6,0"/>
			<path class="st3" d="M282.5,190.8c1.1,2.5,1.8,5.2,2,7.9c0,3.4-2,9.1-2,9.1"/>
		</g>
		<g class="st1">
			<g>
				<path class="st4" d="M1488.5,158.9c11.5-2.7,23.4-3.1,35.1-1.1c32.8,5.6,58.9,26.9,67.4,41.4"/>
			</g>
			<g>
				<path class="st4" d="M1488.5,239.9c9.5,2.2,21.3,2.5,35.1,1.1c32.9-3.3,59.9-28.3,67.4-41.4"/>
			</g>
			<g>
				<path class="st4" d="M1488.2,160.1l13,19c0,0,10.3-1.3,16.3-1.3s12,1,13,5s-6,9-8,10s-238.8,0-238.8,0"/>
			</g>
			<g>
				<path class="st4" d="M1488.5,239.7l13-18c0,0,9,1,15,1s12-1,13-5s-6-9-8-10s-238-0.4-238-0.4"/>
			</g>
			<g>
				<path class="st3" d="M1282.5,192.2c0.6,2.5,0.9,5,1,7.5c-0.1,2.9-0.5,5.7-1,8.5"/>
			</g>
		</g>
	</g>
	<g id="图层_2_x5F_复制">
		<g>
			<path class="st4" d="M321.5,190.6h-236c-1,0.6-2.6,1.4-4.5,2.6c-2.4,1.5-4.8,3.2-7,5c-6.6,5.2-32.1,8.4-32.1,8.6
				c0,0.5,132.1,0.4,279.6,0"/>
			<path class="st3" d="M321.9,190.8c1.1,2.5,1.8,5.2,2,7.9c0,3.4-2,9.1-2,9.1"/>
		</g>
		<g>
			<g>
				<g>
					<path class="st4" d="M1427.1,158.9c11.5-2.7,23.4-3.1,35.1-1.1c32.8,5.6,58.9,26.9,67.4,41.4"/>
				</g>
			</g>
			<g>
				<g>
					<path class="st4" d="M1427.1,239.9c9.5,2.2,21.3,2.5,35.1,1.1c32.9-3.3,59.9-28.3,67.4-41.4"/>
				</g>
			</g>
			<g>
				<g>
					<path class="st4" d="M1426.8,160.1l13,19c0,0,10.3-1.3,16.3-1.3s12,1,13,5s-6,9-8,10s-238.8,0-238.8,0"/>
				</g>
			</g>
			<g>
				<g>
					<path class="st4" d="M1427.1,239.7l13-18c0,0,9,1,15,1s12-1,13-5s-6-9-8-10s-238-0.4-238-0.4"/>
				</g>
			</g>
			<g>
				<g>
					<path class="st3" d="M1221.1,192.2c0.6,2.5,0.9,5,1,7.5c-0.1,2.9-0.5,5.7-1,8.5"/>
				</g>
			</g>
		</g>
	</g>
</g>
<g id="图层_2_2_">
	<g>
		<g id="图层_1_8_">
			<g id="text_7_">
				<g>
					<g>
						<text transform="matrix(1 0 0 1 410.4036 290.5303)" class="st5 st6 st7 st8" style="text-shadow:1px 1px 4px rgba(0, 0, 0, 0.3)">Capri</text>
					</g>
				</g>
			</g>
		</g>
	</g>
</g>
</svg>
