<svg xmlns="http://www.w3.org/2000/svg" viewBox="0 0 1396.99 455.18"><defs><style>.cls-1{font-size:229.95px;letter-spacing:0.02em;}.cls-1,.cls-3,.cls-4,.cls-5,.cls-6{fill:#ff8c09;}.cls-1,.cls-3,.cls-4{font-family:VesperLibre-Bold, Vesper Libre;font-weight:700;}.cls-2{font-size:173.61px;letter-spacing:0.02em;}.cls-3{font-size:248px;letter-spacing:0.02em;}.cls-4{font-size:124.47px;letter-spacing:0.05em;}.cls-5,.cls-7{stroke:#000;stroke-miterlimit:10;}.cls-5{stroke-width:12px;}.cls-7{fill:none;stroke-linecap:round;}</style></defs><title>Logo</title><g id="arrow2_连接" data-name="arrow2 连接"><path d="M1967.75,1145.49s10.07-2.8,10.06-4.46c-1-1.31-4.54-2.61-10.08-3.82l-2-.1-1246.49,3.27c-2.28.15-12,1-23,1.91-13.26,1.13-28.35,2.44-34.4,3-33.23,2.82-58,3.92-58,4,0,.26,619.11-1.53,1361.91-3.68" transform="translate(-603.83 -897.63)"/><path d="M1925,1119.11l14.85,10.16a92.51,92.51,0,0,1,12.55-.79c7.55,0,12.45.55,13.71,2.89s-4.88,5.29-7.4,5.88S1666,1138,1666,1138a22.25,22.25,0,0,1,1.07,4.36,13.91,13.91,0,0,1-1.21,4.26s290.38-.82,292.9-.23,8.68,3.55,7.43,5.94-6.15,3-13.7,3a90.73,90.73,0,0,1-12.56-.74l-14.79,10.11V1166c9.45,4.28,17.3,6.12,29.26,4.85,30.14-4.45,38.66-17.14,46.45-28.48v-1.24c-7.84-11.29-16.43-23.94-46.59-28.24-10.64-1.2-19.81.68-29.23,5" transform="translate(-603.83 -897.63)"/></g><g id="Text"><text class="cls-1" transform="translate(114.08 209.56) rotate(-0.08) scale(0.87 1)">Bizarre<tspan class="cls-2" x="811.52" y="0"> </tspan><tspan x="864.24" y="0">T</tspan></text><text class="cls-3" transform="translate(1007.4 208.24) rotate(-0.08) scale(1.07 1)"> </text><text class="cls-1" transform="translate(1087.98 208.12) rotate(-0.08) scale(0.87 1)">ur</text><text class="cls-4" transform="translate(506.09 361.81) rotate(0.53) scale(0.87 1)">to Italy</text></g><g id="bug"><ellipse class="cls-5" cx="1038.51" cy="153.12" rx="42.5" ry="49"/><path d="M1671.84,1007.74c0,14.92-13.21,27-29.5,27s-29.5-12.08-29.5-27" transform="translate(-603.83 -897.63)"/><path class="cls-6" d="M1631.37,1008.78s1.42,6.31-2.77,9.11c-4,2.69-9.51-.54-9.51-.54a26.16,26.16,0,0,1,12.28-8.57Z" transform="translate(-603.83 -897.63)"/><path class="cls-6" d="M1654.32,1008.78s-1.41,6.31,2.77,9.11c4,2.69,9.51-.54,9.51-.54a26.16,26.16,0,0,0-12.28-8.57Z" transform="translate(-603.83 -897.63)"/><path d="M1609.48,1030.27s7,2.46,4.44,9.26c-2.93,7.65-9.71,4.77-9.71,4.77a18.5,18.5,0,0,1,5.27-14Z" transform="translate(-603.83 -897.63)"/><path d="M1605.44,1054.11s7.23-1.43,8.42,5.75c1.34,8.08-5.87,9-5.87,9a18.63,18.63,0,0,1-2.55-14.75Z" transform="translate(-603.83 -897.63)"/><path d="M1613,1077.51s4.48-4.64,9.55.59c5.7,5.87,1,10.09,1,10.09a21.72,21.72,0,0,1-6.23-4.38A22.18,22.18,0,0,1,1613,1077.51Z" transform="translate(-603.83 -897.63)"/><path d="M1675,1030.27s-7,2.46-4.44,9.26c2.93,7.65,9.7,4.77,9.7,4.77a19.21,19.21,0,0,0-1.14-7.57A19.45,19.45,0,0,0,1675,1030.27Z" transform="translate(-603.83 -897.63)"/><path d="M1679.05,1054.11s-7.23-1.43-8.42,5.75c-1.34,8.08,5.87,9,5.87,9a18.63,18.63,0,0,0,2.55-14.75Z" transform="translate(-603.83 -897.63)"/><path d="M1671.53,1077.51s-4.47-4.64-9.54.59c-5.7,5.87-1,10.09-1,10.09a21.6,21.6,0,0,0,6.22-4.38A21.93,21.93,0,0,0,1671.53,1077.51Z" transform="translate(-603.83 -897.63)"/><path d="M1632.76,1070.73c5.21-.28,7.89-5.67,9.58-9.27,1.69,3.6,4.62,9,9.58,9.27,5.84.32,10.6-3.63,10.6-9.47,0-11.9-12-15-20.18-26.78-7.73,11.69-20.17,15.26-20.17,26.78,0,5.84,4.74,9.47,10.59,9.47Z" transform="translate(-603.83 -897.63)"/><line class="cls-7" x1="1038.51" y1="160.62" x2="1038.51" y2="198.62"/></g></svg>