<?xml version="1.0" encoding="utf-8"?>
<!-- Generator: Adobe Illustrator 22.0.0, SVG Export Plug-In . SVG Version: 6.00 Build 0)  -->
<svg version="1.1" id="图层_1" xmlns="http://www.w3.org/2000/svg" xmlns:xlink="http://www.w3.org/1999/xlink" x="0px" y="0px"
	 viewBox="0 0 147.8 193" style="enable-background:new 0 0 147.8 193;" xml:space="preserve">
<style type="text/css">
	.st0{fill:#00DBFF;}
</style>
<path class="st0" d="M74,6.2C34.4,6.2,2.1,38.4,2.1,78c0,14.7,4.4,28.8,12.7,40.7c0.4,0.7,0.8,1.4,1.3,2.1l52.5,69
	c1.4,1.6,3.3,2.5,5.4,2.5c2,0,3.9-0.9,5.6-2.8l52.2-68.8c0.5-0.7,1-1.4,1.2-1.9c8.4-12,12.9-26.3,12.8-40.9
	C145.9,38.4,113.7,6.2,74,6.2z M74,103.7C59.9,103.6,48.4,92.2,48.4,78c0.4-14.2,12.2-25.4,26.4-25c13.6,0.4,24.6,11.3,25,25
	C99.7,92.2,88.2,103.6,74,103.7L74,103.7z"/>
</svg>
