<?xml version="1.0" encoding="utf-8"?>
<!-- Generator: Adobe Illustrator 22.0.0, SVG Export Plug-In . SVG Version: 6.00 Build 0)  -->
<svg version="1.1" id="图层_1" xmlns="http://www.w3.org/2000/svg" xmlns:xlink="http://www.w3.org/1999/xlink" x="0px" y="0px"
	 viewBox="0 0 169 154.9" style="enable-background:new 0 0 169 154.9;" xml:space="preserve">
<style type="text/css">
	.st0{fill:#FF841F;stroke:#FF841F;stroke-width:6;stroke-miterlimit:10;}
	.st1{fill:#FF841F;stroke:#FF841F;stroke-width:5;stroke-miterlimit:10;}
	.st2{clip-path:url(#SVGID_2_);fill:#FF841F;stroke:#FF841F;stroke-width:9;stroke-miterlimit:10;}
	.st3{fill:none;stroke:#050505;stroke-width:5;stroke-miterlimit:10;}
</style>
<path class="st0" d="M143.4,116.5c-12.1,0-21.9-9.8-21.9-21.9s9.8-21.9,21.9-21.9c12.1,0,21.9,9.8,21.9,21.9
	C165.2,106.7,155.5,116.5,143.4,116.5z M143.4,79c-8.6,0-15.6,7-15.6,15.6s7,15.6,15.6,15.6s15.6-7,15.6-15.6S152,79,143.4,79
	L143.4,79z"/>
<path class="st1" d="M48,35.3c-0.8,0-1.6-0.3-2.2-0.9l-4.3-4.3c-5.7-5.7-5.8-15.1,0-20.8l0,0L45.8,5C47,3.8,49,3.8,50.2,5
	s1.2,3.2,0,4.4l-4.3,4.3c-3.3,3.3-3.3,8.7,0,12l0,0l4.3,4.3c1.2,1.2,1.2,3.2,0,4.4C49.6,34.9,48.8,35.3,48,35.3L48,35.3z"/>
<path class="st1" d="M48,60.3c-1.7,0-3.1-1.4-3.1-3.1c0-0.8,0.3-1.6,0.9-2.2l4.3-4.3c3.3-3.3,3.3-8.7,0-12l-4.3-4.3
	c-1.2-1.3-1.1-3.2,0.1-4.4c1.2-1.1,3.1-1.1,4.3,0l4.3,4.3c5.7,5.8,5.7,15.1,0,20.8l-4.3,4.3C49.6,60,48.8,60.3,48,60.3z M74.6,35.3
	c-0.8,0-1.6-0.3-2.2-0.9l-4.3-4.3c-5.7-5.8-5.7-15.1,0-20.8L72.4,5c1.2-1.2,3.2-1.2,4.4,0c1.2,1.2,1.2,3.2,0,4.4l-4.3,4.3
	c-3.3,3.3-3.3,8.7,0,12l4.3,4.3c1.2,1.2,1.2,3.2,0,4.4C76.2,34.9,75.4,35.3,74.6,35.3L74.6,35.3z"/>
<path class="st1" d="M74.6,60.3c-1.7,0-3.1-1.4-3.1-3.1c0-0.8,0.3-1.6,0.9-2.2l4.3-4.3c3.3-3.3,3.3-8.7,0-12l-4.3-4.3
	c-1.2-1.2-1.2-3.2,0.1-4.4c1.2-1.2,3.1-1.2,4.4,0l4.3,4.3c5.7,5.8,5.7,15.1,0,20.8l-4.3,4.3C76.2,60,75.4,60.3,74.6,60.3L74.6,60.3z
	 M101.3,35.3c-0.8,0-1.6-0.3-2.2-0.9l-4.3-4.3c-5.7-5.8-5.7-15.1,0-20.8L99.1,5c1.2-1.2,3.2-1.2,4.4,0c1.2,1.2,1.2,3.2,0,4.4
	l-4.3,4.3c-3.3,3.3-3.3,8.7,0,12l4.3,4.3c1.2,1.2,1.2,3.2,0,4.4C102.9,34.9,102.1,35.3,101.3,35.3L101.3,35.3z"/>
<path class="st1" d="M101.3,60.3c-1.7,0-3.1-1.4-3.1-3.1c0-0.8,0.3-1.6,0.9-2.2l4.3-4.3c3.3-3.3,3.3-8.7,0-12l0,0l-4.3-4.3
	c-1.2-1.2-1.2-3.2,0.1-4.4c1.2-1.2,3.1-1.2,4.4,0l4.3,4.3c5.7,5.7,5.8,15.1,0,20.8l0,0l-4.3,4.3C102.9,60,102.1,60.3,101.3,60.3z"/>
<g>
	<g>
		<defs>
			<path id="SVGID_1_" d="M122.2,66.5H27.1c-3.1,0-5.6,2.5-5.6,5.6V108c0,12.3,4.8,23.9,13.5,32.6c8.8,8.7,20.3,13.5,32.6,13.5h14.1
				c12.2,0,23.9-4.7,32.6-13.5s13.5-20.3,13.5-32.6V72.1C127.8,69,125.3,66.5,122.2,66.5z"/>
		</defs>
		<clipPath id="SVGID_2_">
			<use xlink:href="#SVGID_1_"  style="overflow:visible;"/>
		</clipPath>
		<rect x="13.2" y="59.3" class="st2" width="118.7" height="96.2"/>
	</g>
</g>
<path class="st3" d="M291.7,121.2c0,21.9-17.8,39.8-39.8,39.8h-14.1c-21.9,0-39.8-17.8-39.8-39.8V86h93.7V121.2z"/>
<g id="图层_2_1_">
</g>
</svg>
